<svg width="512" height="512" viewBox="0 0 512 512" fill="none" xmlns="http://www.w3.org/2000/svg">
<path d="M296.235 153H210.896V336.379H296.235V153Z" fill="#5DB83D"/>
<path d="M253.16 442.001L143.896 332.441L362.896 332.001L253.16 442.001Z" fill="#5DB83D"/>
<path d="M402.896 180.001H446.896V501.001C446.896 506.524 442.419 511.001 436.896 511.001H402.896V180.001Z" fill="#0F5A45"/>
<path d="M55.0598 179.933H99.3097V511.998H65.0598C59.537 511.998 55.0598 507.521 55.0598 501.998V179.933Z" fill="#0F5A45"/>
<rect x="98.8975" y="453.002" width="61" height="59" fill="#0F5A45"/>
<rect x="345.896" y="453.002" width="58" height="58" fill="#0F5A45"/>
<path d="M138.896 384.001L242.896 511.001H138.896L138.896 384.001Z" fill="#0F5A45"/>
<path d="M371.896 385L269.896 511H371.896L371.896 385Z" fill="#0F5A45"/>
<path d="M270.643 40.3462C273.809 50.9283 269.478 65.2157 260.968 72.258L33.0292 260.893C24.5196 267.935 15.0542 265.066 11.8878 254.484L5.73296 233.915C2.56651 223.332 6.898 209.045 15.4076 202.003L243.346 13.3678C251.856 6.32547 261.321 9.19505 264.488 19.7772L270.643 40.3462Z" fill="#0F5A45"/>
<path d="M241.356 39.7291C238.19 50.3112 242.521 64.5986 251.031 71.6408L478.97 260.276C487.479 267.318 496.945 264.449 500.111 253.866L506.266 233.297C509.433 222.715 505.101 208.428 496.591 201.386L268.653 12.7506C260.143 5.70828 250.678 8.57786 247.511 19.16L241.356 39.7291Z" fill="#0F5A45"/>
<ellipse cx="256.396" cy="17.5" rx="13.5" ry="9.5" fill="#0F5A45"/>
</svg>
