<svg width="200" height="40" viewBox="0 0 200 40" fill="none" xmlns="http://www.w3.org/2000/svg">
<path d="M24.9971 8.99707H18.9971V20.9971H24.9971V8.99707Z" fill="#5DB83D"/>
<path d="M21.9971 27.9971L13.9971 18.9971H29.9971L21.9971 27.9971Z" fill="#5DB83D"/>
<path d="M34.9971 8.99707H38.9971V27.9971C38.9971 29.1016 38.1016 29.9971 36.9971 29.9971H34.9971V8.99707Z" fill="#0F5A45"/>
<path d="M5.99707 8.99707H9.99707V29.9971H7.99707C6.8925 29.9971 5.99707 29.1016 5.99707 27.9971V8.99707Z" fill="#0F5A45"/>
<rect x="29.9971" y="24.9971" width="5" height="5" fill="#0F5A45"/>
<rect x="8.99707" y="24.9971" width="5" height="5" fill="#0F5A45"/>
<path d="M30.9971 20.9971L23.9971 29.9971H30.9971L30.9971 20.9971Z" fill="#0F5A45"/>
<path d="M13.9971 21.9971L20.9971 29.9971H13.9971L13.9971 21.9971Z" fill="#0F5A45"/>
<path d="M23.1124 2.22219C23.6649 3.33619 23.2109 4.68956 22.0984 5.24505L4.01522 14.2741C2.90272 14.8296 1.55297 14.3768 1.00049 13.2629C0.448003 12.1489 0.901989 10.7955 2.01449 10.24L20.0977 1.21092C21.2102 0.655433 22.5599 1.1082 23.1124 2.22219Z" fill="#0F5A45"/>
<path d="M19.7602 2.7946C19.4167 3.48729 19.699 4.32883 20.3907 4.67423L40.3291 14.6296C41.0209 14.975 41.8601 14.6935 42.2037 14.0008L42.9678 12.46C43.3113 11.7674 43.0291 10.9258 42.3373 10.5804L22.3989 0.625039C21.7072 0.279637 20.8679 0.561168 20.5243 1.25386L19.7602 2.7946Z" fill="#0F5A45"/>
<ellipse cx="22.4976" cy="1.99386" rx="1.5" ry="0.994839" fill="#0F5A45"/>
<path d="M43.1231 25.9971L47.5331 16.1971H49.3251L53.7491 25.9971H51.8451L48.0511 17.1631H48.7791L44.9991 25.9971H43.1231ZM45.1531 23.7291L45.6431 22.3011H50.9351L51.4251 23.7291H45.1531ZM53.9776 25.9831L54.0616 24.5131C54.1269 24.5224 54.1876 24.5317 54.2436 24.5411C54.2996 24.5504 54.3509 24.5551 54.3976 24.5551C54.6869 24.5551 54.9109 24.4664 55.0696 24.2891C55.2282 24.1117 55.3449 23.8737 55.4196 23.5751C55.5036 23.2671 55.5596 22.9264 55.5876 22.5531C55.6249 22.1704 55.6529 21.7877 55.6716 21.4051L55.7976 18.5211H61.8456V25.9971H60.0956V19.5291L60.5016 20.0051H56.9456L57.3236 19.5151L57.2256 21.4891C57.1976 22.1517 57.1416 22.7677 57.0576 23.3371C56.9829 23.8971 56.8616 24.3871 56.6936 24.8071C56.5349 25.2271 56.3109 25.5537 56.0216 25.7871C55.7416 26.0204 55.3822 26.1371 54.9436 26.1371C54.8036 26.1371 54.6496 26.1231 54.4816 26.0951C54.3229 26.0671 54.1549 26.0297 53.9776 25.9831ZM64.2024 25.9971V18.5211H66.0364L69.0464 23.8271H68.3184L71.4824 18.5211H73.1204L73.1344 25.9971H71.5524V20.3971L71.8324 20.5791L69.0324 25.2131H68.2764L65.4624 20.4531L65.7984 20.3691V25.9971H64.2024ZM80.0177 25.9971V24.4851L79.9197 24.1631V21.5171C79.9197 21.0037 79.7657 20.6071 79.4577 20.3271C79.1497 20.0377 78.683 19.8931 78.0577 19.8931C77.6377 19.8931 77.2223 19.9584 76.8117 20.0891C76.4103 20.2197 76.0697 20.4017 75.7897 20.6351L75.1037 19.3611C75.505 19.0531 75.981 18.8244 76.5317 18.6751C77.0917 18.5164 77.6703 18.4371 78.2677 18.4371C79.3503 18.4371 80.1857 18.6984 80.7737 19.2211C81.371 19.7344 81.6697 20.5324 81.6697 21.6151V25.9971H80.0177ZM77.6657 26.0951C77.1057 26.0951 76.6157 26.0017 76.1957 25.8151C75.7757 25.6191 75.449 25.3531 75.2157 25.0171C74.9917 24.6717 74.8797 24.2844 74.8797 23.8551C74.8797 23.4351 74.9777 23.0571 75.1737 22.7211C75.379 22.3851 75.7103 22.1191 76.1677 21.9231C76.625 21.7271 77.2317 21.6291 77.9877 21.6291H80.1577V22.7911H78.1137C77.5163 22.7911 77.115 22.8891 76.9097 23.0851C76.7043 23.2717 76.6017 23.5051 76.6017 23.7851C76.6017 24.1024 76.7277 24.3544 76.9797 24.5411C77.2317 24.7277 77.5817 24.8211 78.0297 24.8211C78.459 24.8211 78.8417 24.7231 79.1777 24.5271C79.523 24.3311 79.7703 24.0417 79.9197 23.6591L80.2137 24.7091C80.0457 25.1477 79.7423 25.4884 79.3037 25.7311C78.8743 25.9737 78.3283 26.0951 77.6657 26.0951Z" fill="#0F5A45"/>
<path d="M83.8352 25.9971V18.5211H87.4892C88.3945 18.5211 89.1038 18.6891 89.6172 19.0251C90.1398 19.3611 90.4012 19.8371 90.4012 20.4531C90.4012 21.0597 90.1585 21.5357 89.6732 21.8811C89.1878 22.2171 88.5438 22.3851 87.7412 22.3851L87.9512 21.9511C88.8565 21.9511 89.5285 22.1191 89.9672 22.4551C90.4152 22.7817 90.6392 23.2624 90.6392 23.8971C90.6392 24.5597 90.3918 25.0777 89.8972 25.4511C89.4025 25.8151 88.6512 25.9971 87.6432 25.9971H83.8352ZM85.5012 24.7231H87.5032C87.9792 24.7231 88.3385 24.6484 88.5812 24.4991C88.8238 24.3404 88.9452 24.1024 88.9452 23.7851C88.9452 23.4491 88.8332 23.2017 88.6092 23.0431C88.3852 22.8844 88.0352 22.8051 87.5592 22.8051H85.5012V24.7231ZM85.5012 21.6431H87.3352C87.7832 21.6431 88.1192 21.5637 88.3432 21.4051C88.5765 21.2371 88.6932 21.0037 88.6932 20.7051C88.6932 20.3971 88.5765 20.1684 88.3432 20.0191C88.1192 19.8697 87.7832 19.7951 87.3352 19.7951H85.5012V21.6431ZM100.049 25.9971V18.5211H101.799V25.9971H100.049ZM96.1431 20.9851C97.1045 20.9851 97.8325 21.1997 98.3271 21.6291C98.8311 22.0584 99.0831 22.6651 99.0831 23.4491C99.0831 24.2611 98.8031 24.8957 98.2431 25.3531C97.6925 25.8011 96.9085 26.0204 95.8911 26.0111L92.5031 25.9971V18.5211H94.2531V20.9711L96.1431 20.9851ZM95.7371 24.7231C96.2505 24.7324 96.6425 24.6251 96.9131 24.4011C97.1838 24.1771 97.3191 23.8504 97.3191 23.4211C97.3191 22.9917 97.1838 22.6837 96.9131 22.4971C96.6518 22.3011 96.2598 22.1984 95.7371 22.1891L94.2531 22.1751V24.7091L95.7371 24.7231ZM109.514 25.9971L106.812 22.4131L108.24 21.5311L111.572 25.9971H109.514ZM104.152 25.9971V18.5211H105.902V25.9971H104.152ZM105.384 23.0011V21.5451H107.918V23.0011H105.384ZM108.408 22.4691L106.77 22.2731L109.514 18.5211H111.39L108.408 22.4691ZM113.054 28.8111C112.69 28.8111 112.326 28.7504 111.962 28.6291C111.598 28.5077 111.295 28.3397 111.052 28.1251L111.752 26.8371C111.929 26.9957 112.13 27.1217 112.354 27.2151C112.578 27.3084 112.807 27.3551 113.04 27.3551C113.357 27.3551 113.614 27.2757 113.81 27.1171C114.006 26.9584 114.188 26.6924 114.356 26.3191L114.79 25.3391L114.93 25.1291L117.758 18.5211H119.438L115.938 26.5991C115.705 27.1591 115.443 27.6024 115.154 27.9291C114.874 28.2557 114.557 28.4844 114.202 28.6151C113.857 28.7457 113.474 28.8111 113.054 28.8111ZM114.594 26.2631L111.22 18.5211H113.04L115.784 24.9751L114.594 26.2631ZM120.654 25.9971V18.5211H127.822V25.9971H126.086V19.5991L126.492 20.0051H121.998L122.404 19.5991V25.9971H120.654Z" fill="#5DB83D"/>
<path d="M7.33704 38.4474C7.12104 38.4474 6.91971 38.4127 6.73304 38.3434C6.54904 38.2714 6.38904 38.1701 6.25304 38.0394C6.11704 37.9087 6.01037 37.7554 5.93304 37.5794C5.85837 37.4034 5.82104 37.2101 5.82104 36.9994C5.82104 36.7887 5.85837 36.5954 5.93304 36.4194C6.01037 36.2434 6.11704 36.0901 6.25304 35.9594C6.39171 35.8287 6.55304 35.7287 6.73704 35.6594C6.92104 35.5874 7.12237 35.5514 7.34104 35.5514C7.58371 35.5514 7.80237 35.5941 7.99704 35.6794C8.19437 35.7621 8.35971 35.8847 8.49304 36.0474L8.07704 36.4314C7.98104 36.3221 7.87437 36.2407 7.75704 36.1874C7.63971 36.1314 7.51171 36.1034 7.37304 36.1034C7.24237 36.1034 7.12237 36.1247 7.01304 36.1674C6.90371 36.2101 6.80904 36.2714 6.72904 36.3514C6.64904 36.4314 6.58637 36.5261 6.54104 36.6354C6.49837 36.7447 6.47704 36.8661 6.47704 36.9994C6.47704 37.1327 6.49837 37.2541 6.54104 37.3634C6.58637 37.4727 6.64904 37.5674 6.72904 37.6474C6.80904 37.7274 6.90371 37.7887 7.01304 37.8314C7.12237 37.8741 7.24237 37.8954 7.37304 37.8954C7.51171 37.8954 7.63971 37.8687 7.75704 37.8154C7.87437 37.7594 7.98104 37.6754 8.07704 37.5634L8.49304 37.9474C8.35971 38.1101 8.19437 38.2341 7.99704 38.3194C7.80237 38.4047 7.58237 38.4474 7.33704 38.4474ZM8.91538 38.3994V35.5994H10.1274C10.378 35.5994 10.594 35.6407 10.7754 35.7234C10.9567 35.8034 11.0967 35.9194 11.1954 36.0714C11.294 36.2234 11.3434 36.4047 11.3434 36.6154C11.3434 36.8234 11.294 37.0034 11.1954 37.1554C11.0967 37.3074 10.9567 37.4247 10.7754 37.5074C10.594 37.5874 10.378 37.6274 10.1274 37.6274H9.27538L9.56338 37.3354V38.3994H8.91538ZM9.56338 37.4074L9.27538 37.0994H10.0914C10.2914 37.0994 10.4407 37.0567 10.5394 36.9714C10.638 36.8861 10.6874 36.7674 10.6874 36.6154C10.6874 36.4607 10.638 36.3407 10.5394 36.2554C10.4407 36.1701 10.2914 36.1274 10.0914 36.1274H9.27538L9.56338 35.8194V37.4074ZM13.1499 38.4474C12.9286 38.4474 12.7232 38.4114 12.5339 38.3394C12.3472 38.2674 12.1846 38.1661 12.0459 38.0354C11.9099 37.9047 11.8032 37.7514 11.7259 37.5754C11.6512 37.3994 11.6139 37.2074 11.6139 36.9994C11.6139 36.7914 11.6512 36.5994 11.7259 36.4234C11.8032 36.2474 11.9112 36.0941 12.0499 35.9634C12.1886 35.8327 12.3512 35.7314 12.5379 35.6594C12.7246 35.5874 12.9272 35.5514 13.1459 35.5514C13.3672 35.5514 13.5699 35.5874 13.7539 35.6594C13.9406 35.7314 14.1019 35.8327 14.2379 35.9634C14.3766 36.0941 14.4846 36.2474 14.5619 36.4234C14.6392 36.5967 14.6779 36.7887 14.6779 36.9994C14.6779 37.2074 14.6392 37.4007 14.5619 37.5794C14.4846 37.7554 14.3766 37.9087 14.2379 38.0394C14.1019 38.1674 13.9406 38.2674 13.7539 38.3394C13.5699 38.4114 13.3686 38.4474 13.1499 38.4474ZM13.1459 37.8954C13.2712 37.8954 13.3859 37.8741 13.4899 37.8314C13.5966 37.7887 13.6899 37.7274 13.7699 37.6474C13.8499 37.5674 13.9112 37.4727 13.9539 37.3634C13.9992 37.2541 14.0219 37.1327 14.0219 36.9994C14.0219 36.8661 13.9992 36.7447 13.9539 36.6354C13.9112 36.5261 13.8499 36.4314 13.7699 36.3514C13.6926 36.2714 13.6006 36.2101 13.4939 36.1674C13.3872 36.1247 13.2712 36.1034 13.1459 36.1034C13.0206 36.1034 12.9046 36.1247 12.7979 36.1674C12.6939 36.2101 12.6019 36.2714 12.5219 36.3514C12.4419 36.4314 12.3792 36.5261 12.3339 36.6354C12.2912 36.7447 12.2699 36.8661 12.2699 36.9994C12.2699 37.1301 12.2912 37.2514 12.3339 37.3634C12.3792 37.4727 12.4406 37.5674 12.5179 37.6474C12.5979 37.7274 12.6912 37.7887 12.7979 37.8314C12.9046 37.8741 13.0206 37.8954 13.1459 37.8954ZM16.8705 37.3554C16.7318 37.4114 16.5985 37.4541 16.4705 37.4834C16.3425 37.5101 16.2198 37.5234 16.1025 37.5234C15.7265 37.5234 15.4385 37.4341 15.2385 37.2554C15.0385 37.0741 14.9385 36.8141 14.9385 36.4754V35.5994H15.5785V36.4034C15.5785 36.5954 15.6305 36.7407 15.7345 36.8394C15.8385 36.9354 15.9865 36.9834 16.1785 36.9834C16.3012 36.9834 16.4198 36.9701 16.5345 36.9434C16.6492 36.9141 16.7558 36.8727 16.8545 36.8194L16.8705 37.3554ZM16.7785 38.3994V35.5994H17.4185V38.3994H16.7785ZM20.0346 35.5994H20.6826V38.3994H20.0346V35.5994ZM18.7626 38.3994H18.1146V35.5994H18.7626V38.3994ZM20.0826 37.2514H18.7146V36.7034H20.0826V37.2514ZM22.7401 36.5194C23.0788 36.5194 23.3401 36.5954 23.5241 36.7474C23.7081 36.8967 23.8001 37.1221 23.8001 37.4234C23.8001 37.7434 23.6975 37.9861 23.4921 38.1514C23.2895 38.3167 23.0081 38.3994 22.6481 38.3994H21.3841V35.5994H22.0281V36.5194H22.7401ZM22.6121 37.9194C22.7775 37.9194 22.9081 37.8781 23.0041 37.7954C23.1001 37.7127 23.1481 37.5927 23.1481 37.4354C23.1481 37.2807 23.1001 37.1701 23.0041 37.1034C22.9108 37.0341 22.7801 36.9994 22.6121 36.9994H22.0281V37.9194H22.6121ZM24.1561 38.3994V35.5994H24.8001V38.3994H24.1561ZM25.4974 38.3994V35.5994H26.1414V37.4234L27.4774 35.5994H28.0854V38.3994H27.4454V36.5794L26.1094 38.3994H25.4974ZM26.7894 35.4194C26.5227 35.4194 26.3267 35.3661 26.2014 35.2594C26.0787 35.1527 26.0161 35.0021 26.0134 34.8074H26.4574C26.4601 34.9034 26.4881 34.9767 26.5414 35.0274C26.5974 35.0754 26.6801 35.0994 26.7894 35.0994C26.8961 35.0994 26.9774 35.0754 27.0334 35.0274C27.0894 34.9767 27.1187 34.9034 27.1214 34.8074H27.5654C27.5627 35.0021 27.4987 35.1527 27.3734 35.2594C27.2481 35.3661 27.0534 35.4194 26.7894 35.4194ZM29.9154 38.3994V35.5994H31.2194C31.5447 35.5994 31.798 35.6621 31.9794 35.7874C32.1607 35.9127 32.2514 36.0914 32.2514 36.3234C32.2514 36.5527 32.166 36.7314 31.9954 36.8594C31.8247 36.9847 31.598 37.0474 31.3154 37.0474L31.3914 36.8794C31.706 36.8794 31.95 36.9421 32.1234 37.0674C32.2967 37.1927 32.3834 37.3741 32.3834 37.6114C32.3834 37.8567 32.29 38.0501 32.1034 38.1914C31.9194 38.3301 31.65 38.3994 31.2954 38.3994H29.9154ZM30.5594 37.9194H31.2714C31.4207 37.9194 31.534 37.8901 31.6114 37.8314C31.6887 37.7727 31.7274 37.6821 31.7274 37.5594C31.7274 37.4421 31.6887 37.3554 31.6114 37.2994C31.534 37.2407 31.4207 37.2114 31.2714 37.2114H30.5594V37.9194ZM30.5594 36.7594H31.1634C31.3047 36.7594 31.4114 36.7314 31.4834 36.6754C31.5554 36.6167 31.5914 36.5314 31.5914 36.4194C31.5914 36.3074 31.5554 36.2234 31.4834 36.1674C31.4114 36.1087 31.3047 36.0794 31.1634 36.0794H30.5594V36.7594ZM34.2519 36.5194C34.5905 36.5194 34.8519 36.5954 35.0359 36.7474C35.2199 36.8967 35.3119 37.1221 35.3119 37.4234C35.3119 37.7434 35.2092 37.9861 35.0039 38.1514C34.8012 38.3167 34.5199 38.3994 34.1599 38.3994H32.8959V35.5994H33.5399V36.5194H34.2519ZM34.1239 37.9194C34.2892 37.9194 34.4199 37.8781 34.5159 37.7954C34.6119 37.7127 34.6599 37.5927 34.6599 37.4354C34.6599 37.2807 34.6119 37.1701 34.5159 37.1034C34.4225 37.0341 34.2919 36.9994 34.1239 36.9994H33.5399V37.9194H34.1239ZM35.6679 38.3994V35.5994H36.3119V38.3994H35.6679ZM38.8211 38.3994L37.9491 37.0514L38.4731 36.7354L39.5571 38.3994H38.8211ZM37.0011 38.3994V35.5994H37.6451V38.3994H37.0011ZM37.4571 37.2714V36.7314H38.4331V37.2714H37.4571ZM38.5331 37.0714L37.9371 36.9994L38.8451 35.5994H39.5291L38.5331 37.0714ZM40.0036 37.8714C40.1582 37.9167 40.2876 37.9301 40.3916 37.9114C40.4982 37.8901 40.5929 37.8154 40.6756 37.6874L40.8116 37.4834L40.8716 37.4154L41.7996 35.5994H42.4356L41.2436 37.8154C41.1369 38.0154 41.0102 38.1687 40.8636 38.2754C40.7196 38.3821 40.5609 38.4421 40.3876 38.4554C40.2142 38.4714 40.0342 38.4407 39.8476 38.3634L40.0036 37.8714ZM40.8596 37.9554L39.5956 35.5994H40.2876L41.2156 37.4794L40.8596 37.9554ZM42.7435 38.3994V35.5994H45.2955V38.3994H44.6515V35.9794L44.7995 36.1274H43.2395L43.3875 35.9794V38.3994H42.7435ZM49.0424 35.5994H49.6904V38.3994H49.0424V35.5994ZM47.7704 38.3994H47.1224V35.5994H47.7704V38.3994ZM49.0904 37.2514H47.7224V36.7034H49.0904V37.2514ZM50.9879 36.7274H52.3359V37.2314H50.9879V36.7274ZM51.0359 37.8794H52.5599V38.3994H50.3919V35.5994H52.5079V36.1194H51.0359V37.8794ZM54.9394 38.1114V36.1274H53.9794L53.9674 36.5354C53.9594 36.7087 53.9474 36.8727 53.9314 37.0274C53.918 37.1821 53.8967 37.3234 53.8674 37.4514C53.838 37.5767 53.7994 37.6834 53.7514 37.7714C53.706 37.8594 53.6487 37.9221 53.5794 37.9594L52.8874 37.8714C52.9834 37.8741 53.062 37.8407 53.1234 37.7714C53.1874 37.7021 53.238 37.6047 53.2754 37.4794C53.3127 37.3514 53.3394 37.2021 53.3554 37.0314C53.374 36.8607 53.3874 36.6754 53.3954 36.4754L53.4274 35.5994H55.5794V38.1114H54.9394ZM52.7954 38.9794L52.7994 37.8714H55.9714V38.9794H55.3714V38.3994H53.3954V38.9794H52.7954ZM56.4076 38.3994V35.5994H57.7116C58.0369 35.5994 58.2902 35.6621 58.4716 35.7874C58.6529 35.9127 58.7436 36.0914 58.7436 36.3234C58.7436 36.5527 58.6582 36.7314 58.4876 36.8594C58.3169 36.9847 58.0902 37.0474 57.8076 37.0474L57.8836 36.8794C58.1982 36.8794 58.4422 36.9421 58.6156 37.0674C58.7889 37.1927 58.8756 37.3741 58.8756 37.6114C58.8756 37.8567 58.7822 38.0501 58.5956 38.1914C58.4116 38.3301 58.1422 38.3994 57.7876 38.3994H56.4076ZM57.0516 37.9194H57.7636C57.9129 37.9194 58.0262 37.8901 58.1036 37.8314C58.1809 37.7727 58.2196 37.6821 58.2196 37.5594C58.2196 37.4421 58.1809 37.3554 58.1036 37.2994C58.0262 37.2407 57.9129 37.2114 57.7636 37.2114H57.0516V37.9194ZM57.0516 36.7594H57.6556C57.7969 36.7594 57.9036 36.7314 57.9756 36.6754C58.0476 36.6167 58.0836 36.5314 58.0836 36.4194C58.0836 36.3074 58.0476 36.2234 57.9756 36.1674C57.9036 36.1087 57.7969 36.0794 57.6556 36.0794H57.0516V36.7594ZM59.388 38.3994V35.5994H60.032V37.4234L61.368 35.5994H61.976V38.3994H61.336V36.5794L60 38.3994H59.388ZM65.8412 38.3994L65.0892 37.0514L65.6372 36.7354L66.5892 38.3994H65.8412ZM64.6132 37.2714V36.7314H65.4852V37.2714H64.6132ZM65.6732 37.0714L65.0732 36.9994L65.8532 35.5994H66.5372L65.6732 37.0714ZM63.1252 38.3994H62.3772L63.3292 36.7354L63.8772 37.0514L63.1252 38.3994ZM64.8052 38.3994H64.1692V35.5994H64.8052V38.3994ZM64.3572 37.2714H63.4812V36.7314H64.3572V37.2714ZM63.2972 37.0714L62.4292 35.5994H63.1132L63.8892 36.9994L63.2972 37.0714ZM66.8998 38.3994V35.5994H67.5438V37.4234L68.8798 35.5994H69.4878V38.3994H68.8478V36.5794L67.5118 38.3994H66.8998ZM70.1849 38.3994V35.5994H70.7209L71.9129 37.5754H71.6289L72.8009 35.5994H73.3369L73.3409 38.3994H72.7329L72.7289 36.5314H72.8449L71.9049 38.1034H71.6169L70.6569 36.5314H70.7929V38.3994H70.1849ZM75.3765 38.4474C75.1551 38.4474 74.9498 38.4114 74.7605 38.3394C74.5738 38.2674 74.4111 38.1661 74.2725 38.0354C74.1365 37.9047 74.0298 37.7514 73.9525 37.5754C73.8778 37.3994 73.8405 37.2074 73.8405 36.9994C73.8405 36.7914 73.8778 36.5994 73.9525 36.4234C74.0298 36.2474 74.1378 36.0941 74.2765 35.9634C74.4151 35.8327 74.5778 35.7314 74.7645 35.6594C74.9511 35.5874 75.1538 35.5514 75.3725 35.5514C75.5938 35.5514 75.7965 35.5874 75.9805 35.6594C76.1671 35.7314 76.3285 35.8327 76.4645 35.9634C76.6031 36.0941 76.7111 36.2474 76.7885 36.4234C76.8658 36.5967 76.9045 36.7887 76.9045 36.9994C76.9045 37.2074 76.8658 37.4007 76.7885 37.5794C76.7111 37.7554 76.6031 37.9087 76.4645 38.0394C76.3285 38.1674 76.1671 38.2674 75.9805 38.3394C75.7965 38.4114 75.5951 38.4474 75.3765 38.4474ZM75.3725 37.8954C75.4978 37.8954 75.6125 37.8741 75.7165 37.8314C75.8231 37.7887 75.9165 37.7274 75.9965 37.6474C76.0765 37.5674 76.1378 37.4727 76.1805 37.3634C76.2258 37.2541 76.2485 37.1327 76.2485 36.9994C76.2485 36.8661 76.2258 36.7447 76.1805 36.6354C76.1378 36.5261 76.0765 36.4314 75.9965 36.3514C75.9191 36.2714 75.8271 36.2101 75.7205 36.1674C75.6138 36.1247 75.4978 36.1034 75.3725 36.1034C75.2471 36.1034 75.1311 36.1247 75.0245 36.1674C74.9205 36.2101 74.8285 36.2714 74.7485 36.3514C74.6685 36.4314 74.6058 36.5261 74.5605 36.6354C74.5178 36.7447 74.4965 36.8661 74.4965 36.9994C74.4965 37.1301 74.5178 37.2514 74.5605 37.3634C74.6058 37.4727 74.6671 37.5674 74.7445 37.6474C74.8245 37.7274 74.9178 37.7887 75.0245 37.8314C75.1311 37.8741 75.2471 37.8954 75.3725 37.8954ZM78.7277 38.4474C78.5117 38.4474 78.3103 38.4127 78.1237 38.3434C77.9397 38.2714 77.7797 38.1701 77.6437 38.0394C77.5077 37.9087 77.401 37.7554 77.3237 37.5794C77.249 37.4034 77.2117 37.2101 77.2117 36.9994C77.2117 36.7887 77.249 36.5954 77.3237 36.4194C77.401 36.2434 77.5077 36.0901 77.6437 35.9594C77.7823 35.8287 77.9437 35.7287 78.1277 35.6594C78.3117 35.5874 78.513 35.5514 78.7317 35.5514C78.9743 35.5514 79.193 35.5941 79.3877 35.6794C79.585 35.7621 79.7503 35.8847 79.8837 36.0474L79.4677 36.4314C79.3717 36.3221 79.265 36.2407 79.1477 36.1874C79.0303 36.1314 78.9023 36.1034 78.7637 36.1034C78.633 36.1034 78.513 36.1247 78.4037 36.1674C78.2943 36.2101 78.1997 36.2714 78.1197 36.3514C78.0397 36.4314 77.977 36.5261 77.9317 36.6354C77.889 36.7447 77.8677 36.8661 77.8677 36.9994C77.8677 37.1327 77.889 37.2541 77.9317 37.3634C77.977 37.4727 78.0397 37.5674 78.1197 37.6474C78.1997 37.7274 78.2943 37.7887 78.4037 37.8314C78.513 37.8741 78.633 37.8954 78.7637 37.8954C78.9023 37.8954 79.0303 37.8687 79.1477 37.8154C79.265 37.7594 79.3717 37.6754 79.4677 37.5634L79.8837 37.9474C79.7503 38.1101 79.585 38.2341 79.3877 38.3194C79.193 38.4047 78.973 38.4474 78.7277 38.4474ZM80.8827 38.3994V35.9794L81.0307 36.1274H79.9907V35.5994H82.4187V36.1274H81.3787L81.5227 35.9794V38.3994H80.8827ZM82.8255 38.3994V35.5994H83.4695V37.4234L84.8055 35.5994H85.4135V38.3994H84.7735V36.5794L83.4375 38.3994H82.8255ZM87.2435 38.3994V35.5994H88.5475C88.8728 35.5994 89.1262 35.6621 89.3075 35.7874C89.4888 35.9127 89.5795 36.0914 89.5795 36.3234C89.5795 36.5527 89.4942 36.7314 89.3235 36.8594C89.1528 36.9847 88.9262 37.0474 88.6435 37.0474L88.7195 36.8794C89.0342 36.8794 89.2782 36.9421 89.4515 37.0674C89.6248 37.1927 89.7115 37.3741 89.7115 37.6114C89.7115 37.8567 89.6182 38.0501 89.4315 38.1914C89.2475 38.3301 88.9782 38.3994 88.6235 38.3994H87.2435ZM87.8875 37.9194H88.5995C88.7488 37.9194 88.8622 37.8901 88.9395 37.8314C89.0168 37.7727 89.0555 37.6821 89.0555 37.5594C89.0555 37.4421 89.0168 37.3554 88.9395 37.2994C88.8622 37.2407 88.7488 37.2114 88.5995 37.2114H87.8875V37.9194ZM87.8875 36.7594H88.4915C88.6328 36.7594 88.7395 36.7314 88.8115 36.6754C88.8835 36.6167 88.9195 36.5314 88.9195 36.4194C88.9195 36.3074 88.8835 36.2234 88.8115 36.1674C88.7395 36.1087 88.6328 36.0794 88.4915 36.0794H87.8875V36.7594ZM91.0408 38.3994L92.2888 35.5994H92.9288L94.1808 38.3994H93.5008L92.4768 35.9274H92.7328L91.7048 38.3994H91.0408ZM91.6648 37.7994L91.8368 37.3074H93.2768L93.4528 37.7994H91.6648ZM94.5957 38.4434C94.5477 38.4434 94.4971 38.4394 94.4437 38.4314C94.3931 38.4234 94.3371 38.4127 94.2757 38.3994L94.3157 37.8514C94.3531 37.8621 94.3917 37.8674 94.4317 37.8674C94.5411 37.8674 94.6264 37.8234 94.6877 37.7354C94.7491 37.6447 94.7931 37.5154 94.8197 37.3474C94.8464 37.1794 94.8637 36.9754 94.8717 36.7354L94.9117 35.5994H97.0637V38.3994H96.4237V35.9794L96.5717 36.1274H95.3357L95.4677 35.9714L95.4437 36.7114C95.4357 36.9861 95.4171 37.2301 95.3877 37.4434C95.3584 37.6567 95.3131 37.8381 95.2517 37.9874C95.1904 38.1367 95.1064 38.2501 94.9997 38.3274C94.8931 38.4047 94.7584 38.4434 94.5957 38.4434ZM97.763 38.3994V35.5994H98.299L99.491 37.5754H99.207L100.379 35.5994H100.915L100.919 38.3994H100.311L100.307 36.5314H100.423L99.483 38.1034H99.195L98.235 36.5314H98.371V38.3994H97.763ZM101.299 38.3994L102.547 35.5994H103.187L104.439 38.3994H103.759L102.735 35.9274H102.991L101.963 38.3994H101.299ZM101.923 37.7994L102.095 37.3074H103.535L103.711 37.7994H101.923ZM105.273 38.3994V35.9794L105.421 36.1274H104.381V35.5994H106.809V36.1274H105.769L105.913 35.9794V38.3994H105.273ZM108.572 36.5194C108.911 36.5194 109.172 36.5954 109.356 36.7474C109.54 36.8967 109.632 37.1221 109.632 37.4234C109.632 37.7434 109.529 37.9861 109.324 38.1514C109.121 38.3167 108.84 38.3994 108.48 38.3994H107.216V35.5994H107.86V36.5194H108.572ZM108.444 37.9194C108.609 37.9194 108.74 37.8781 108.836 37.7954C108.932 37.7127 108.98 37.5927 108.98 37.4354C108.98 37.2807 108.932 37.1701 108.836 37.1034C108.743 37.0341 108.612 36.9994 108.444 36.9994H107.86V37.9194H108.444ZM109.988 38.3994V35.5994H110.632V38.3994H109.988Z" fill="#363636"/>
<line x1="3.99707" y1="33.4971" x2="131.997" y2="33.4971" stroke="#363636"/>
</svg>
