<svg width="32" height="32" viewBox="0 0 32 32" fill="none" xmlns="http://www.w3.org/2000/svg">
<path d="M18.5344 9.03711H13.2007V20.4983H18.5344V9.03711Z" fill="#5DB83D"/>
<path d="M15.8263 29.1494L9.01221 20.3012L22.6699 20.2656L15.8263 29.1494Z" fill="#5DB83D"/>
<path d="M25.1812 11.2588H27.9312V30.962C27.9312 31.5143 27.4834 31.962 26.9312 31.962H25.1812V11.2588Z" fill="#0F5A45"/>
<path d="M3.44141 11.2451H6.20702V31.9992H4.44141C3.88912 31.9992 3.44141 31.5515 3.44141 30.9992V11.2451Z" fill="#0F5A45"/>
<rect x="6.19238" y="29.1348" width="2.88119" height="2.86567" fill="#0F5A45"/>
<rect x="22.3062" y="29.1465" width="2.9375" height="2.81464" fill="#0F5A45"/>
<path d="M9.05518 26.3955L14.2514 31.9993H9.05518L9.05518 26.3955Z" fill="#0F5A45"/>
<path d="M22.3691 26.3125L17.1303 31.9622H22.3691L22.3691 26.3125Z" fill="#0F5A45"/>
<path d="M16.9868 2.76072C17.1451 3.28983 16.9285 4.0042 16.503 4.35631L1.87166 16.4648C1.44618 16.8169 0.97291 16.6734 0.814588 16.1443L0.286576 14.3797C0.128254 13.8506 0.344828 13.1363 0.770309 12.7841L15.4017 0.675667C15.8272 0.323552 16.3004 0.467031 16.4588 0.996136L16.9868 2.76072Z" fill="#0F5A45"/>
<path d="M15.0132 2.72263C14.8549 3.25174 15.0715 3.96611 15.497 4.31822L30.1283 16.4267C30.5538 16.7788 31.0271 16.6353 31.1854 16.1062L31.7134 14.3416C31.8717 13.8125 31.6552 13.0982 31.2297 12.7461L16.5983 0.637581C16.1728 0.285466 15.6996 0.428945 15.5412 0.95805L15.0132 2.72263Z" fill="#0F5A45"/>
<ellipse cx="16.0249" cy="1.09375" rx="0.84375" ry="0.59375" fill="#0F5A45"/>
</svg>
